<svg width="32" height="32" viewBox="0 0 32 32" fill="none" xmlns="http://www.w3.org/2000/svg">
<g clip-path="url(#clip0)">
<path d="M31.7938 10.9657C31.6375 10.8121 31.4189 10.7392 31.2016 10.7683H22.7124V7.01727C22.7124 3.31013 19.7072 0.304932 16.0001 0.304932C12.293 0.304932 9.28776 3.31013 9.28776 7.01727V10.7683H0.798482C0.561552 10.7683 0.324697 10.7683 0.206195 10.9657C0.0470319 11.1187 -0.0268056 11.3401 0.00879055 11.558L2.97015 27.7467C3.38385 30.0049 5.33379 31.6574 7.62932 31.6951H24.3707C26.6728 31.6385 28.6187 29.973 29.0299 27.7072L31.9913 11.558C32.0269 11.3401 31.953 11.1187 31.7938 10.9657ZM10.8671 7.01727C10.8671 4.18242 13.1652 1.88431 16 1.88431C18.8349 1.88431 21.133 4.18242 21.133 7.01727V10.7683H10.8671V7.01727ZM27.4505 27.5097C27.1846 29.0062 25.8906 30.1011 24.3707 30.1157H7.62932C6.10949 30.1011 4.81549 29.0063 4.54954 27.5097L1.74613 12.3477H30.2539L27.4505 27.5097Z" fill="black"/>
<path d="M21.9225 20.0472C22.3586 20.0472 22.7122 19.6937 22.7122 19.2575V16.8884C22.7122 16.4523 22.3586 16.0988 21.9225 16.0988C21.4864 16.0988 21.1328 16.4523 21.1328 16.8884V19.2575C21.1327 19.6937 21.4864 20.0472 21.9225 20.0472Z" fill="black"/>
<path d="M10.0778 20.0472C10.5139 20.0472 10.8675 19.6937 10.8675 19.2575V16.8884C10.8675 16.4523 10.5139 16.0988 10.0778 16.0988C9.64163 16.0988 9.28809 16.4523 9.28809 16.8884V19.2575C9.28809 19.6937 9.64163 20.0472 10.0778 20.0472Z" fill="black"/>
</g>
<defs>
<clipPath id="clip0">
<rect width="32" height="32" fill="white"/>
</clipPath>
</defs>
</svg>
