<svg width="57" height="58" viewBox="0 0 57 58" fill="none" xmlns="http://www.w3.org/2000/svg">
<g clip-path="url(#clip0)">
<path d="M57 28.9741C57 13.2323 44.2418 0.474121 28.5 0.474121C12.7582 0.474121 0 13.2323 0 28.9741C0 44.7159 12.7582 57.4741 28.5 57.4741C28.667 57.4741 28.834 57.4741 29.001 57.463V35.2864H22.8779V28.1503H29.001V22.8956C29.001 16.806 32.7193 13.4884 38.1521 13.4884C40.7572 13.4884 42.9949 13.6776 43.6406 13.7667V20.1347H39.9C36.9498 20.1347 36.3709 21.5374 36.3709 23.597V28.1392H43.4402L42.5162 35.2753H36.3709V56.372C48.283 52.9542 57 41.9884 57 28.9741Z" fill="white"/>
</g>
<defs>
<clipPath id="clip0">
<rect width="57" height="57" fill="white" transform="translate(0 0.474121)"/>
</clipPath>
</defs>
</svg>
