<svg width="59" height="60" viewBox="0 0 59 60" fill="none" xmlns="http://www.w3.org/2000/svg">
<g clip-path="url(#clip0)">
<path d="M35.1465 29.9741C35.1465 33.0927 32.6185 35.6206 29.5 35.6206C26.3815 35.6206 23.8535 33.0927 23.8535 29.9741C23.8535 26.8556 26.3815 24.3276 29.5 24.3276C32.6185 24.3276 35.1465 26.8556 35.1465 29.9741Z" fill="white"/>
<path d="M42.705 19.984C42.4336 19.2485 42.0005 18.5827 41.4379 18.0362C40.8914 17.4736 40.2261 17.0405 39.4901 16.7691C38.8932 16.5373 37.9966 16.2614 36.345 16.1862C34.5585 16.1047 34.0228 16.0872 29.4998 16.0872C24.9764 16.0872 24.4408 16.1043 22.6547 16.1857C21.0031 16.2614 20.106 16.5373 19.5096 16.7691C18.7736 17.0405 18.1078 17.4736 17.5618 18.0362C16.9992 18.5827 16.5661 19.248 16.2943 19.984C16.0624 20.5808 15.7865 21.478 15.7113 23.1295C15.6299 24.9156 15.6123 25.4513 15.6123 29.9747C15.6123 34.4977 15.6299 35.0333 15.7113 36.8199C15.7865 38.4714 16.0624 39.3681 16.2943 39.965C16.5661 40.701 16.9987 41.3663 17.5614 41.9127C18.1078 42.4754 18.7731 42.9084 19.5091 43.1798C20.106 43.4121 21.0031 43.688 22.6547 43.7632C24.4408 43.8447 24.976 43.8618 29.4994 43.8618C34.0232 43.8618 34.5589 43.8447 36.3446 43.7632C37.9961 43.688 38.8932 43.4121 39.4901 43.1798C40.9675 42.61 42.1351 41.4423 42.705 39.965C42.9368 39.3681 43.2127 38.4714 43.2884 36.8199C43.3698 35.0333 43.3869 34.4977 43.3869 29.9747C43.3869 25.4513 43.3698 24.9156 43.2884 23.1295C43.2132 21.478 42.9373 20.5808 42.705 19.984ZM29.4998 38.6726C24.6956 38.6726 20.801 34.7785 20.801 29.9743C20.801 25.17 24.6956 21.2759 29.4998 21.2759C34.3037 21.2759 38.1982 25.17 38.1982 29.9743C38.1982 34.7785 34.3037 38.6726 29.4998 38.6726ZM38.5421 22.9648C37.4195 22.9648 36.5093 22.0546 36.5093 20.932C36.5093 19.8093 37.4195 18.8991 38.5421 18.8991C39.6648 18.8991 40.5749 19.8093 40.5749 20.932C40.5745 22.0546 39.6648 22.9648 38.5421 22.9648Z" fill="white"/>
<path d="M29.5 0.474121C13.2101 0.474121 0 13.6842 0 29.9741C0 46.264 13.2101 59.4741 29.5 59.4741C45.7899 59.4741 59 46.264 59 29.9741C59 13.6842 45.7899 0.474121 29.5 0.474121ZM46.3373 36.958C46.2553 38.7612 45.9686 39.9923 45.55 41.0699C44.67 43.3454 42.8712 45.1441 40.5958 46.0241C39.5186 46.4427 38.2871 46.729 36.4843 46.8114C34.6779 46.8938 34.1008 46.9136 29.5005 46.9136C24.8996 46.9136 24.323 46.8938 22.5162 46.8114C20.7134 46.729 19.4818 46.4427 18.4046 46.0241C17.2739 45.5987 16.2503 44.9321 15.404 44.0701C14.5425 43.2243 13.8758 42.2002 13.4505 41.0699C13.0318 39.9928 12.7451 38.7612 12.6632 36.9584C12.5799 35.1516 12.5605 34.5745 12.5605 29.9741C12.5605 25.3737 12.5799 24.7967 12.6627 22.9903C12.7447 21.187 13.0309 19.9559 13.4496 18.8783C13.8749 17.748 14.542 16.724 15.404 15.8782C16.2498 15.0162 17.2739 14.3495 18.4042 13.9241C19.4818 13.5055 20.7129 13.2192 22.5162 13.1368C24.3226 13.0545 24.8996 13.0347 29.5 13.0347C34.1004 13.0347 34.6774 13.0545 36.4838 13.1373C38.2871 13.2192 39.5182 13.5055 40.5958 13.9237C41.7261 14.3491 42.7502 15.0162 43.5964 15.8782C44.458 16.7244 45.1251 17.748 45.55 18.8783C45.9691 19.9559 46.2553 21.187 46.3377 22.9903C46.4201 24.7967 46.4395 25.3737 46.4395 29.9741C46.4395 34.5745 46.4201 35.1516 46.3373 36.958Z" fill="white"/>
</g>
<defs>
<clipPath id="clip0">
<rect width="59" height="59" fill="white" transform="translate(0 0.474121)"/>
</clipPath>
</defs>
</svg>
