<svg width="32" height="33" viewBox="0 0 32 33" fill="none" xmlns="http://www.w3.org/2000/svg">
<g clip-path="url(#clip0)">
<path d="M31.1291 23.9589L26.6634 19.4932C25.0686 17.8983 22.3572 18.5363 21.7193 20.6096C21.2408 22.0451 19.6459 22.8425 18.2105 22.5235C15.0207 21.726 10.7145 17.5793 9.91708 14.2301C9.43862 12.7946 10.3956 11.1997 11.831 10.7213C13.9043 10.0833 14.5423 7.37203 12.9474 5.77713L8.48168 1.31144C7.20577 0.195015 5.2919 0.195015 4.17548 1.31144L1.14518 4.34173C-1.88511 7.53152 1.46416 15.9844 8.96015 23.4804C16.4561 30.9764 24.9091 34.4852 28.0988 31.2954L31.1291 28.2651C32.2456 26.9892 32.2456 25.0753 31.1291 23.9589Z" fill="white"/>
</g>
<defs>
<clipPath id="clip0">
<rect width="32" height="32" fill="white" transform="translate(0 0.474121)"/>
</clipPath>
</defs>
</svg>
